<?xml version="1.0" encoding="utf-8"?>
<!-- Generator: Adobe Illustrator 21.0.0, SVG Export Plug-In . SVG Version: 6.00 Build 0)  -->
<svg version="1.1" id="图层_1" xmlns="http://www.w3.org/2000/svg" xmlns:xlink="http://www.w3.org/1999/xlink" x="0px" y="0px"
	 viewBox="0 0 161.3 57.3" style="enable-background:new 0 0 161.3 57.3;" xml:space="preserve">
<style type="text/css">
	.st0{fill-rule:evenodd;clip-rule:evenodd;fill:#FFFFFF;}
</style>
<g>
	<path class="st0" d="M35.1,14.5c-3.7,0-6.8,3-6.8,6.8c0,0.1,0,2,0,4.4h2.3c0-2.4,0-4.2,0-4.3c0-2.5,2-4.5,4.5-4.5
		c2.5,0,4.5,2,4.5,4.5c0,0.3,0,0.6,0,0.6c0,0.6,0.5,1.1,1.1,1.1c0.6,0,1.1-0.5,1.1-1.1c0,0,0-0.7,0-0.7
		C41.9,17.5,38.9,14.5,35.1,14.5z"/>
	<path class="st0" d="M21.3,39c-0.6,0.3-1.3,0.5-2.1,0.5c-2.5,0-4.5-2-4.5-4.5c0-0.3,0-0.6,0.1-0.9c0,0,0,0,0,0c0,0,0-0.1,0-0.1
		c0-0.1,0.1-0.3,0.1-0.4c0.8-2.4,3.4-3.7,5.7-2.9c0.2,0.1,0.5,0.1,0.7,0v-2.2c-3.6-1.2-7.4,0.8-8.6,4.4c-1.2,3.6,0.8,7.4,4.3,8.6
		l0,0c0.7,0.2,1.4,0.3,2.1,0.3c0.7,0,1.4-0.1,2.1-0.3V39z"/>
	<path class="st0" d="M35.2,18.9c-1.3,0-2.3,1-2.3,2.3c0,1.3,1,2.3,2.3,2.3c1.3,0,2.3-1,2.3-2.3C37.5,19.9,36.4,18.9,35.2,18.9z
		 M35.2,22.3c-0.6,0-1.1-0.5-1.1-1.1c0-0.6,0.5-1.1,1.1-1.1s1.1,0.5,1.1,1.1C36.3,21.8,35.8,22.3,35.2,22.3z"/>
	<path class="st0" d="M19.4,32.5c-1.3,0-2.3,1-2.3,2.3c0,1.3,1,2.3,2.3,2.3c1.3,0,2.3-1,2.3-2.3C21.6,33.5,20.6,32.5,19.4,32.5z
		 M19.4,35.9c-0.6,0-1.1-0.5-1.1-1.1c0-0.6,0.5-1.1,1.1-1.1c0.6,0,1.1,0.5,1.1,1.1C20.5,35.4,20,35.9,19.4,35.9z"/>
	<path class="st0" d="M19.2,41.8c-0.7,0-1.5-0.1-2.1-0.3l0,0l0,0c-3.6-1.2-5.5-5-4.3-8.6c1.2-3.6,5-5.5,8.6-4.3l0,0
		c0.6,0.2,0.9,0.8,0.7,1.4c-0.2,0.6-0.8,0.9-1.4,0.7l0,0c-2.4-0.8-5,0.5-5.7,2.9c0,0.1-0.1,0.3-0.1,0.4c0,0,0,0.1,0,0.1c0,0,0,0,0,0
		c-0.1,0.3-0.1,0.6-0.1,0.9c0,2.5,2,4.5,4.5,4.5c2.5,0,4.5-2,4.5-4.5l0,0V17.5l0,0c0-0.1,0-0.1,0-0.2c0-0.6,0.5-1.1,1.1-1.1
		c0.6,0,1.1,0.5,1.1,1.1c0,0.1,0,0.1,0,0.2h0v17.5l0,0C26,38.7,23,41.8,19.2,41.8z"/>
	<path class="st0" d="M17.6,29.4c1.3,0,2.6,0.5,3.5,1.3c0.4,0,0.8-0.3,1-0.8c0.2-0.6-0.1-1.2-0.7-1.4c-3-1-6.2,0.2-7.8,2.8
		C14.5,30.1,15.9,29.4,17.6,29.4z"/>
	<path class="st0" d="M26,17.5c0-0.1,0-0.1,0-0.2c0-0.6-0.5-1.1-1.1-1.1c-0.6,0-1.1,0.5-1.1,1.1c0,0.1,0,0.1,0,0.2v17.5
		c0,2.1-1.4,3.9-3.4,4.4c-0.8,0.5-1.8,0.8-2.8,0.8c-2.1,0-3.9-1.2-4.8-2.9c0.7,1.9,2.2,3.5,4.3,4.2l0,0c0.7,0.2,1.4,0.3,2.1,0.3
		c3.8,0,6.8-3.1,6.8-6.8L26,17.5L26,17.5z"/>
	<path class="st0" d="M35.1,14.5c-0.1,0-0.2,0-0.3,0c2.9,0.2,5.2,2.5,5.2,5.4c0,0.6-0.1,1.2-0.3,1.8c0,0.1,0,0.2,0,0.2
		c0,0.6,0.5,1.1,1.1,1.1c0.6,0,1.1-0.5,1.1-1.1c0,0,0-0.7,0-0.7C41.9,17.5,38.9,14.5,35.1,14.5z"/>
	<path class="st0" d="M30.6,31.3c0.1,0,0.2,0,0.3,0c0.1,0,0.2,0,0.3,0c0,0,0,0,0.1,0c0.1,0,0.2,0,0.3,0c0,0,0.1,0,0.1,0
		c0.1,0,0.2,0,0.2,0c0,0,0.1,0,0.1,0c0.1,0,0.1,0,0.2,0c0,0,0.1,0,0.1,0c0.1,0,0.1,0,0.2-0.1c0,0,0.1,0,0.1,0c0.1,0,0.2-0.1,0.2-0.1
		c0,0,0.1,0,0.1,0c0.1,0,0.2-0.1,0.3-0.1c0.9-0.4,1.7-0.9,2.4-1.6c0.4-0.4,0.7-0.8,1-1.3l0,0c0.2-0.3,0.3-0.8,0.1-1.2
		c-0.3-0.5-1-0.7-1.5-0.4c-0.2,0.1-0.3,0.3-0.4,0.4c-0.2,0.3-0.4,0.6-0.6,0.9c0,0,0,0,0,0c0,0-0.1,0.1-0.1,0.1
		c-0.1,0.1-0.2,0.2-0.3,0.3c0,0,0,0,0,0c-0.1,0.1-0.2,0.1-0.3,0.2c0,0,0,0-0.1,0c-0.1,0.1-0.2,0.1-0.3,0.2c0,0-0.1,0-0.1,0.1
		c-0.1,0.1-0.2,0.1-0.4,0.2c0,0,0,0,0,0c-0.6,0.2-1.2,0.3-1.7,0.3c-0.1,0-0.1,0-0.2,0C30.6,28.7,30.6,32.3,30.6,31.3z"/>
	<path class="st0" d="M30.6,29c0-0.3,0-0.6,0-0.9h0c0-0.3,0-0.6,0-0.9h0c0-0.6,0-1.2,0-1.8c-1.1-1.2-1.8-2.9-1.8-4.7
		c0-1.5,0.5-2.9,1.3-4.1c-1.1,1.2-1.8,2.8-1.8,4.6c0,0.4,0,16.2,0,16.2c0,0.6,0.5,1.1,1.1,1.1l0,0l0,0c0.3,0,0.6-0.1,0.8-0.3
		c0.2-0.2,0.3-0.5,0.3-0.8c0,0,0-0.9,0-2.3c0-1.1,0-2.4,0-3.9V29z"/>
</g>
<g>
	<g>
		<path class="st0" d="M147.9,25.9L147.9,25.9H138v2.3h4.8v-1l0,0c0-0.5,0.4-0.8,0.9-0.8c0.5,0,0.9,0.4,0.9,0.8h0v1h4l0,0
			c0.5,0,0.8,0.4,0.8,0.9c0,0.5-0.4,0.9-0.8,0.9l0,0h-4v1.8h3.3c0.5,0,0.9,0.4,0.9,0.9v5.8c0,0.5-0.4,0.9-0.9,0.9
			c-0.5,0-0.9-0.4-0.9-0.9v-0.5h-6.4v0.5c0,0.5-0.4,0.9-0.9,0.9c-0.5,0-0.9-0.4-0.9-0.9v-5.8c0-0.5,0.4-0.9,0.9-0.9h3.1v-1.8H138
			v5.4c0,0.1,0,0.2,0,0.2c0,1.3-0.4,2.6-1,3.6l0,0c-0.2,0.3-0.5,0.6-1,0.6c-0.6,0-1.1-0.5-1.1-1.1c0-0.3,0.1-0.6,0.4-0.8l0.1,0
			c0.6-0.7,0.9-1.7,0.9-2.7l0-4.2v-10c0-0.5,0.4-0.9,0.9-0.9h10.8c0.5,0,0.9,0.4,0.9,0.9l0,0l0,0V25c0,0,0,0,0,0
			C148.7,25.5,148.3,25.9,147.9,25.9z M140.5,33.5v2.6h6.4v-2.6H140.5z M147,21.8h-9v2.3h9V21.8z M135,24.7h-1.7v3.9l1.1-0.6
			c0.4-0.2,1-0.1,1.2,0.3c0.2,0.4,0.1,1-0.3,1.2l-2,1.1V38v0c0,0.8-0.6,1.4-1.4,1.4h-0.4l0,0H130l0,0c-0.5,0-0.8-0.4-0.8-0.9
			c0-0.5,0.4-0.9,0.8-0.9l0,0h0.4h0c0,0,0.1,0,0.1,0c0.5,0,0.9-0.4,0.9-0.9c0,0,0,0,0,0l0,0v-5.1l-1.3,0.7c-0.4,0.2-1,0.1-1.2-0.3
			c-0.2-0.4-0.1-1,0.3-1.2l2.1-1.2v-4.9h-1.7c-0.5,0-0.9-0.4-0.9-0.9c0-0.5,0.4-0.9,0.9-0.9h1.7v-3.2c0-0.5,0.4-0.9,0.9-0.9
			c0.5,0,0.9,0.4,0.9,0.9V23h1.7c0.5,0,0.9,0.4,0.9,0.9C135.8,24.3,135.4,24.7,135,24.7z M126.8,38.1c0,0.8-0.6,1.4-1.4,1.4
			c-0.4,0-0.7-0.2-1-0.4c-1.2-0.9-2.2-2-3.1-3.2c-0.9,1.2-2,2.3-3.1,3.2c-0.3,0.2-0.6,0.4-1,0.4c-0.8,0-1.4-0.6-1.4-1.4
			c0-0.6,0.4-1.1,0.9-1.3c1.3-0.6,2.5-1.4,3.5-2.4c-1.4-2.2-2.3-4.7-2.6-7.4c-0.3,0.5-0.6,1-1,1.5l0,0c-0.2,0.3-0.4,0.4-0.8,0.4
			c-0.5,0-0.9-0.4-0.9-0.9c0-0.3,0.1-0.5,0.3-0.7c1.5-2.2,2.6-4.8,3-7.6c0,0,0,0,0,0c0-0.5,0.4-0.9,0.9-0.9c0.5,0,0.8,0.4,0.9,0.8h0
			c-0.1,1.1-0.4,2.2-0.7,3.2h6l0,0c0.5,0,0.9,0.4,0.9,0.9c0,0.5-0.4,0.9-0.9,0.9l0,0h-0.2l0,0c0,3.5-1,6.9-2.8,9.7
			c1,1,2.2,1.8,3.5,2.4C126.4,37,126.8,37.5,126.8,38.1z M123.5,26.3c0-0.6,0-1.1-0.1-1.6h-4.2c-0.1,0.5-0.1,1.1-0.1,1.6
			c0,2.5,0.8,4.9,2.2,6.8C122.7,31.2,123.5,28.9,123.5,26.3z M114.8,25.1h-3.8v3.5c0,0.5-0.4,0.9-0.9,0.9c-0.5,0-0.9-0.4-0.9-0.9
			l0,0v-3.5h-3.8l0,0l0,0c-0.5,0-0.9-0.4-0.9-0.9c0-0.5,0.4-0.9,0.9-0.9l0,0l0,0h3.8v-3.5c0-0.5,0.4-0.9,0.9-0.9
			c0.5,0,0.9,0.4,0.9,0.9v3.5h3.8c0.5,0,0.9,0.4,0.9,0.9C115.7,24.7,115.3,25.1,114.8,25.1z M114.5,21.2l-1.4,1.4l0,0h0l0,0h0
			c-0.3,0.3-0.9,0.3-1.2,0c-0.3-0.3-0.3-0.9,0-1.2l0,0l1.5-1.5l0,0c0.3-0.3,0.9-0.3,1.2,0C114.8,20.4,114.8,20.9,114.5,21.2
			L114.5,21.2z M108.6,22.7c-0.3,0.3-0.9,0.3-1.2,0l0,0l0,0l0,0l0,0l-1.4-1.4l0,0l0,0l0,0l0,0c-0.3-0.3-0.3-0.9,0-1.2
			c0.3-0.3,0.9-0.3,1.2,0l0,0l0,0l0,0l0,0l1.4,1.4l0,0l0,0l0,0h0C108.9,21.8,108.9,22.3,108.6,22.7z M105.9,27.5L105.9,27.5
			L105.9,27.5l1.4-1.4h0c0.3-0.3,0.9-0.3,1.2,0c0.3,0.3,0.3,0.9,0,1.2v0l0,0l0,0l0,0l-1.4,1.4l0,0c-0.3,0.3-0.9,0.3-1.2,0
			C105.6,28.4,105.6,27.9,105.9,27.5L105.9,27.5L105.9,27.5z M114.5,28.7c-0.3,0.3-0.9,0.3-1.2,0l0,0l0,0l0,0l0,0l-1.4-1.4l0,0
			c-0.3-0.3-0.3-0.9,0-1.2c0.3-0.3,0.9-0.3,1.2,0h0l1.5,1.5h0C114.8,27.9,114.8,28.4,114.5,28.7z M105.3,32.8L105.3,32.8
			c-0.5,0-0.8-0.4-0.8-0.9c0-0.5,0.3-0.9,0.8-0.9l0,0l0,0h2h1.5l0.9-0.9c0.3-0.3,0.9-0.3,1.2,0c0.2,0.2,0.3,0.6,0.2,0.9h3h1
			c-0.5,2.1-1.5,3.9-2.9,5.4l1.3,0.8l0,0c0.4,0.2,0.6,0.8,0.3,1.2c-0.2,0.4-0.8,0.6-1.2,0.3l0,0l0,0l0,0l0,0l-1.8-1.1
			c-1.6,1.2-3.4,1.9-5.5,2.1c0,0-0.1,0-0.1,0c0,0-0.1,0-0.1,0v0c-0.5,0-0.8-0.4-0.8-0.9c0-0.5,0.3-0.9,0.8-0.9
			c1.4-0.2,2.8-0.7,4-1.4l-2.7-1.6c-0.1,0-0.2-0.1-0.3-0.2c-0.2-0.2-0.3-0.4-0.3-0.6c0,0,0,0,0,0c0,0,0,0,0,0c0-0.1,0-0.2,0.1-0.4
			c0.1-0.1,0.1-0.2,0.2-0.3l0.8-0.8H105.3L105.3,32.8z M110.7,35.7c1-0.8,1.8-1.7,2.5-2.8h-3.7l-1.3,1.3L110.7,35.7z M89.3,39.4
			c-0.1,0-0.1,0-0.2,0l0,0c0,0,0,0,0,0c-0.1,0-0.1,0-0.2-0.1c-1.3-0.5-2.5-1.3-3.6-2.2c-1,0.9-2.2,1.7-3.6,2.2c-0.1,0-0.1,0-0.2,0.1
			c0,0,0,0,0,0v0c-0.1,0-0.1,0-0.2,0c-0.5,0-0.9-0.4-0.9-0.9c0-0.4,0.2-0.7,0.5-0.8l0,0c1.1-0.5,2.1-1.1,3-1.9
			c-1.4-1.7-2.3-3.9-2.4-6.3h-1.3v9.2c0,0.5-0.4,0.9-0.9,0.9c-0.5,0-0.9-0.4-0.9-0.9V28v-5v-2.1c0-0.5,0.4-0.9,0.9-0.9h8.8
			c0.1,0,0.1,0,0.2,0c0,0,0.1,0,0.1,0c0,0,0.1,0,0.1,0.1c0,0,0,0,0.1,0c0,0,0.1,0.1,0.1,0.1c0,0,0,0,0.1,0.1
			c0.1,0.1,0.1,0.2,0.1,0.3c0,0,0,0.1,0,0.1c0,0.1,0,0.1,0,0.2v3.5v0c0,0.8-0.6,1.4-1.4,1.4h-0.4h-3.7v0c-0.5,0-0.8-0.4-0.8-0.9
			c0-0.5,0.4-0.9,0.8-0.9l0,0h2.6h0c0,0,0.1,0,0.1,0c0.5,0,0.9-0.4,0.9-0.9c0,0,0,0,0,0l0,0v-1.4h-7V23v4.6h7.5l0,0H89
			c0,0.3,0,0.7,0,1c0,2.7-0.9,5.1-2.4,7c0.9,0.8,1.9,1.5,3,1.9l0,0c0.3,0.1,0.5,0.4,0.5,0.8C90.1,39,89.7,39.4,89.3,39.4z
			 M87.6,29.4H83c0.4,1.9,1.2,3.5,2.3,5C86.4,33,87.3,31.3,87.6,29.4z M75.5,39.3h-0.4l0,0h-1.4l0,0c-0.5,0-0.8-0.4-0.8-0.9
			c0-0.5,0.4-0.9,0.8-0.9v0h0.4h0c0,0,0.1,0,0.1,0c0.5,0,0.9-0.4,0.9-0.9c0,0,0,0,0,0h0v-15h-2.5v3.8h0.9v0c0.5,0,0.8,0.4,0.8,0.9
			c0,0.5-0.4,0.9-0.8,0.9l0,0h-0.9v3.5h0.9l0,0c0.5,0,0.8,0.4,0.8,0.9c0,0.5-0.4,0.9-0.8,0.9l0,0h-0.9v2.8c0,0.1,0,0.2,0,0.2
			c0,1.3-0.4,2.6-1,3.6l0,0c-0.2,0.3-0.5,0.6-1,0.6c-0.6,0-1.1-0.5-1.1-1.1c0-0.3,0.1-0.6,0.4-0.8l0.1,0c0.6-0.7,0.9-1.7,0.9-2.7
			l0-4.2v-10c0-0.5,0.4-0.9,0.9-0.9H76c0.5,0,0.9,0.4,0.9,0.9v17.1v0C76.9,38.6,76.3,39.3,75.5,39.3z M65.8,36.9L65.8,36.9
			c0.8,0.1,1.3,0.7,1.3,1.4c0,0.8-0.6,1.4-1.4,1.4c-0.2,0-0.4,0-0.5-0.1l0,0c-4.1-1.7-7.4-4.8-9.4-8.7c-2,3.9-5.3,7-9.3,8.7l0,0
			c-0.2,0.1-0.3,0.1-0.5,0.1c-0.8,0-1.4-0.6-1.4-1.4c0-0.7,0.5-1.3,1.2-1.4l0.1,0c4.9-0.9,8.7-4.9,9.2-10v-0.6h-9.2
			c-0.5,0-0.9-0.4-0.9-0.9c0-0.5,0.4-0.9,0.9-0.9h9.2v-5.7l0,0c0-0.5,0.4-0.8,0.9-0.8c0.5,0,0.9,0.4,0.9,0.8l0,0v5.7h9.2
			c0.5,0,0.9,0.4,0.9,0.9c0,0.5-0.4,0.9-0.9,0.9h-9.2v0.6C57.1,31.9,60.9,36,65.8,36.9z"/>
	</g>
	<g>
		<path class="st0" d="M97.3,13.8c3.5,0,6.3,2.8,6.3,6.3c0,3.6-2.8,6.4-6.3,6.4c-3.5,0-6.4-2.8-6.4-6.4
			C90.9,16.6,93.7,13.8,97.3,13.8L97.3,13.8z M97.2,15.1c-2.7,0-4.8,2.3-4.8,5.1c0,2.8,2.1,5.1,4.8,5.1c2.7,0,4.7-2.2,4.7-5
			C102,17.4,100,15.1,97.2,15.1L97.2,15.1z M96.3,23.5h-1.4v-6.3c0.6-0.1,1.4-0.2,2.4-0.2c1.2,0,1.7,0.2,2.1,0.5
			c0.4,0.3,0.6,0.7,0.6,1.4c0,0.8-0.6,1.3-1.3,1.5v0.1c0.6,0.2,0.9,0.7,1.1,1.5c0.2,1,0.3,1.3,0.5,1.5h-1.5
			c-0.2-0.2-0.3-0.8-0.5-1.5c-0.1-0.7-0.5-1-1.3-1h-0.7V23.5z M96.3,19.9H97c0.8,0,1.4-0.3,1.4-0.9c0-0.6-0.4-1-1.3-1
			c-0.4,0-0.6,0-0.8,0.1V19.9z"/>
	</g>
</g>
</svg>
